<?xml version="1.0" encoding="iso-8859-1"?>
<!-- Generator: Adobe Illustrator 19.0.0, SVG Export Plug-In . SVG Version: 6.00 Build 0)  -->
<svg version="1.1" id="Layer_1" xmlns="http://www.w3.org/2000/svg" xmlns:xlink="http://www.w3.org/1999/xlink" x="0px" y="0px"
	 viewBox="0 0 511.985 511.985" style="enable-background:new 0 0 511.985 511.985;" xml:space="preserve">
<path style="fill:#ED5564;" d="M405.331,32H106.66c-5.89,0-10.663,4.78-10.663,10.671v458.658c0,5.891,4.773,10.656,10.663,10.656
	h298.671c5.875,0,10.656-4.766,10.656-10.656V42.671C415.987,36.78,411.206,32,405.331,32z"/>
<path style="fill:#4FC2E9;" d="M191.994,74.67h-42.663c-5.891,0-10.672,4.781-10.672,10.672v63.998
	c0,5.891,4.781,10.656,10.672,10.656h42.663c5.891,0,10.663-4.766,10.663-10.656V85.341C202.657,79.451,197.885,74.67,191.994,74.67
	z"/>
<path style="fill:#E6E9ED;" d="M191.994,74.67h-42.663c-5.891,0-10.672,4.781-10.672,10.672v21.327h63.998V85.341
	C202.657,79.451,197.885,74.67,191.994,74.67z"/>
<path style="fill:#4FC2E9;" d="M277.335,74.67h-42.678c-5.891,0-10.664,4.781-10.664,10.672v63.998
	c0,5.891,4.773,10.656,10.664,10.656h42.678c5.875,0,10.655-4.766,10.655-10.656V85.341C287.99,79.451,283.21,74.67,277.335,74.67z"
	/>
<path style="fill:#E6E9ED;" d="M277.335,74.67h-42.678c-5.891,0-10.664,4.781-10.664,10.672v21.327h63.997V85.341
	C287.99,79.451,283.21,74.67,277.335,74.67z"/>
<path style="fill:#4FC2E9;" d="M362.644,74.67H319.99c-5.891,0-10.656,4.781-10.656,10.672v63.998
	c0,5.891,4.766,10.656,10.656,10.656h42.654c5.906,0,10.688-4.766,10.688-10.656V85.341C373.332,79.451,368.551,74.67,362.644,74.67
	z"/>
<path style="fill:#E6E9ED;" d="M362.644,74.67H319.99c-5.891,0-10.656,4.781-10.656,10.672v21.327h63.998V85.341
	C373.332,79.451,368.551,74.67,362.644,74.67z"/>
<path style="fill:#4FC2E9;" d="M191.994,181.339h-42.663c-5.891,0-10.672,4.766-10.672,10.656v63.998
	c0,5.891,4.781,10.672,10.672,10.672h42.663c5.891,0,10.663-4.781,10.663-10.672v-63.998
	C202.657,186.104,197.885,181.339,191.994,181.339z"/>
<path style="fill:#E6E9ED;" d="M191.994,181.339h-42.663c-5.891,0-10.672,4.766-10.672,10.656v21.343h63.998v-21.343
	C202.657,186.104,197.885,181.339,191.994,181.339z"/>
<path style="fill:#4FC2E9;" d="M277.335,181.339h-42.678c-5.891,0-10.664,4.766-10.664,10.656v63.998
	c0,5.891,4.773,10.672,10.664,10.672h42.678c5.875,0,10.655-4.781,10.655-10.672v-63.998
	C287.99,186.104,283.21,181.339,277.335,181.339z"/>
<path style="fill:#E6E9ED;" d="M277.335,181.339h-42.678c-5.891,0-10.664,4.766-10.664,10.656v21.343h63.997v-21.343
	C287.99,186.104,283.21,181.339,277.335,181.339z"/>
<path style="fill:#4FC2E9;" d="M362.644,181.339H319.99c-5.891,0-10.656,4.766-10.656,10.656v63.998
	c0,5.891,4.766,10.672,10.656,10.672h42.654c5.906,0,10.688-4.781,10.688-10.672v-63.998
	C373.332,186.104,368.551,181.339,362.644,181.339z"/>
<path style="fill:#E6E9ED;" d="M362.644,181.339H319.99c-5.891,0-10.656,4.766-10.656,10.656v21.343h63.998v-21.343
	C373.332,186.104,368.551,181.339,362.644,181.339z"/>
<path style="fill:#4FC2E9;" d="M191.994,287.991h-42.663c-5.891,0-10.672,4.781-10.672,10.671v63.998
	c0,5.891,4.781,10.672,10.672,10.672h42.663c5.891,0,10.663-4.781,10.663-10.672v-63.998
	C202.657,292.772,197.885,287.991,191.994,287.991z"/>
<path style="fill:#E6E9ED;" d="M191.994,287.991h-42.663c-5.891,0-10.672,4.781-10.672,10.671v21.328h63.998v-21.328
	C202.657,292.772,197.885,287.991,191.994,287.991z"/>
<path style="fill:#4FC2E9;" d="M277.335,287.991h-42.678c-5.891,0-10.664,4.781-10.664,10.671v63.998
	c0,5.891,4.773,10.672,10.664,10.672h42.678c5.875,0,10.655-4.781,10.655-10.672v-63.998
	C287.99,292.772,283.21,287.991,277.335,287.991z"/>
<path style="fill:#E6E9ED;" d="M277.335,287.991h-42.678c-5.891,0-10.664,4.781-10.664,10.671v21.328h63.997v-21.328
	C287.99,292.772,283.21,287.991,277.335,287.991z"/>
<path style="fill:#4FC2E9;" d="M362.644,287.991H319.99c-5.891,0-10.656,4.781-10.656,10.671v63.998
	c0,5.891,4.766,10.672,10.656,10.672h42.654c5.906,0,10.688-4.781,10.688-10.672v-63.998
	C373.332,292.772,368.551,287.991,362.644,287.991z"/>
<path style="fill:#E6E9ED;" d="M362.644,287.991H319.99c-5.891,0-10.656,4.781-10.656,10.671v21.328h63.998v-21.328
	C373.332,292.772,368.551,287.991,362.644,287.991z"/>
<path style="fill:#4FC2E9;" d="M191.994,394.66h-42.663c-5.891,0-10.672,4.781-10.672,10.672v63.998
	c0,5.891,4.781,10.655,10.672,10.655h42.663c5.891,0,10.663-4.765,10.663-10.655v-63.998
	C202.657,399.441,197.885,394.66,191.994,394.66z"/>
<path style="fill:#E6E9ED;" d="M191.994,394.66h-42.663c-5.891,0-10.672,4.781-10.672,10.672v21.327h63.998v-21.327
	C202.657,399.441,197.885,394.66,191.994,394.66z"/>
<path style="fill:#4FC2E9;" d="M362.644,394.66H319.99c-5.891,0-10.656,4.781-10.656,10.672v63.998
	c0,5.891,4.766,10.655,10.656,10.655h42.654c5.906,0,10.688-4.765,10.688-10.655v-63.998
	C373.332,399.441,368.551,394.66,362.644,394.66z"/>
<path style="fill:#E6E9ED;" d="M362.644,394.66H319.99c-5.891,0-10.656,4.781-10.656,10.672v21.327h63.998v-21.327
	C373.332,399.441,368.551,394.66,362.644,394.66z"/>
<path style="fill:#A85D5D;" d="M469.33,511.984c-5.906,0-10.688-4.766-10.688-10.656v-63.998c0-5.891,4.781-10.671,10.688-10.671
	c5.874,0,10.655,4.78,10.655,10.671v63.998C479.985,507.219,475.204,511.984,469.33,511.984z"/>
<path style="fill:#A0D468;" d="M469.33,469.331c-23.531,0-42.688-19.141-42.688-42.671c0-9.984,3.734-34.749,9.75-57.358
	c9.062-34.092,19.219-49.311,32.938-49.311c13.718,0,23.873,15.219,32.936,49.311c6,22.609,9.719,47.374,9.719,57.358
	C511.984,450.189,492.844,469.331,469.33,469.331z"/>
<path style="fill:#A85D5D;" d="M42.662,511.984c-5.891,0-10.663-4.766-10.663-10.656v-63.998c0-5.891,4.772-10.671,10.663-10.671
	s10.672,4.78,10.672,10.671v63.998C53.334,507.219,48.553,511.984,42.662,511.984z"/>
<path style="fill:#A0D468;" d="M42.662,469.331C19.14,469.331,0,450.19,0,426.66c0-9.984,3.718-34.749,9.726-57.358
	c9.062-34.092,19.219-49.311,32.937-49.311c13.719,0,23.875,15.219,32.937,49.311c6.008,22.609,9.734,47.374,9.734,57.358
	C85.333,450.189,66.193,469.331,42.662,469.331z"/>
<path style="fill:#656D78;" d="M415.987,0.001H95.997c-5.891,0-10.664,4.78-10.664,10.671v31.999
	c0,5.891,4.773,10.672,10.664,10.672h319.99c5.89,0,10.655-4.781,10.655-10.672V10.672C426.642,4.781,421.877,0.001,415.987,0.001z"
	/>
<g>
	<path style="fill:#434A54;" d="M127.996,32c-5.891,0-10.664,4.78-10.664,10.671v10.672h21.327V42.671
		C138.659,36.78,133.887,32,127.996,32z"/>
	<path style="fill:#434A54;" d="M170.658,32c-5.89,0-10.663,4.78-10.663,10.671v10.672h21.335V42.671
		C181.33,36.78,176.549,32,170.658,32z"/>
	<path style="fill:#434A54;" d="M213.329,32c-5.891,0-10.672,4.78-10.672,10.671v10.672h21.336V42.671
		C223.993,36.78,219.22,32,213.329,32z"/>
	<path style="fill:#434A54;" d="M255.992,32c-5.891,0-10.664,4.78-10.664,10.671v10.672h21.328V42.671
		C266.656,36.78,261.883,32,255.992,32z"/>
	<path style="fill:#434A54;" d="M298.646,32c-5.875,0-10.656,4.78-10.656,10.671v10.672h21.344V42.671
		C309.334,36.78,304.553,32,298.646,32z"/>
	<path style="fill:#434A54;" d="M341.333,32c-5.905,0-10.687,4.78-10.687,10.671v10.672h21.343V42.671
		C351.989,36.78,347.208,32,341.333,32z"/>
	<path style="fill:#434A54;" d="M383.988,32c-5.891,0-10.656,4.78-10.656,10.671v10.672h21.312V42.671
		C394.644,36.78,389.879,32,383.988,32z"/>
</g>
<path style="fill:#F6BB42;" d="M277.335,394.66h-42.678c-5.891,0-10.664,4.781-10.664,10.672v106.652h63.997V405.332
	C287.99,399.441,283.21,394.66,277.335,394.66z"/>
<g>
</g>
<g>
</g>
<g>
</g>
<g>
</g>
<g>
</g>
<g>
</g>
<g>
</g>
<g>
</g>
<g>
</g>
<g>
</g>
<g>
</g>
<g>
</g>
<g>
</g>
<g>
</g>
<g>
</g>
</svg>
