<svg width="81" height="81" viewBox="0 0 81 81" fill="none"
  xmlns="http://www.w3.org/2000/svg">
  <path d="M51.6535 47.5006C51.218 51.2071 49.5908 54.5615 46.9427 57.2096C43.8321 60.3202 39.6964 62.0349 35.2961 62.0349C26.1934 62.0349 18.8242 54.6677 18.8242 45.563C18.8242 41.1627 20.5368 37.027 23.6495 33.9164C26.3268 31.2391 29.727 29.6056 33.4814 29.191L35.2899 28.991L38.0171 10.2668H35.2961C15.7886 10.2648 0 26.0512 0 45.5609C0 65.0684 15.7865 80.857 35.2961 80.857C54.8016 80.857 70.5922 65.0705 70.5922 45.5609V42.8419L51.6535 45.5984V47.5006ZM32.5584 15.0922L31.1458 24.7949C27.8373 25.4574 24.7183 26.9117 22.0786 29.0181L15.3927 22.3322C20.243 18.1632 26.1976 15.6526 32.5584 15.0922ZM12.0654 25.6575L18.7492 32.3412C16.2386 35.4727 14.6864 39.2167 14.2489 43.2066H4.79616C5.28577 36.702 7.81302 30.6057 12.0654 25.6575ZM4.79616 47.9152H14.2489C14.6885 51.9051 16.2386 55.6491 18.7492 58.7805L12.0654 65.4643C7.81302 60.5181 5.28577 54.4198 4.79616 47.9152ZM32.9418 76.0608C26.4372 75.5691 20.3389 73.044 15.3927 68.7916L22.0765 62.1078C25.2079 64.6184 28.9519 66.1706 32.9418 66.6081V76.0608ZM37.6484 76.0608V66.6081C41.6382 66.1706 45.3822 64.6184 48.5137 62.1078L55.1975 68.7916C50.2513 73.044 44.155 75.5712 37.6484 76.0608ZM56.0642 49.7112L65.7669 48.2986C65.2065 54.6594 62.6959 60.614 58.5268 65.4643L51.841 58.7784C53.9453 56.1387 55.3996 53.0197 56.0642 49.7112Z" fill="#778997"/>
  <path d="M77.9366 2.92038C75.1781 0.16186 70.7132 0.159776 67.9547 2.92038L63.5835 7.29151L60.2542 3.9642L50.2702 13.9482L53.5975 17.2755L31.2793 39.5958V49.5777H41.2612L63.5815 27.2595L66.9088 30.5868L76.8907 20.6028L73.5634 17.2755L77.9345 12.9044C80.6951 10.1459 80.6951 5.68098 77.9366 2.92038ZM39.3132 44.8732H35.9859V41.5459L56.9269 20.6028L60.2542 23.9301L39.3132 44.8732ZM66.9088 23.9301L56.9269 13.9482L60.2542 10.6209C62.8856 13.2523 68.5276 18.8944 70.2361 20.6028L66.9088 23.9301ZM74.6093 9.57708L70.2361 13.9482L66.9088 10.6209L71.2799 6.24977C72.1966 5.33304 73.6905 5.33304 74.6072 6.24977C75.526 7.1665 75.526 8.65826 74.6093 9.57708Z" fill="#778997"/>
</svg>
