<svg width="76" height="92" viewBox="0 0 76 92" fill="none"
  xmlns="http://www.w3.org/2000/svg">
  <path d="M12.2038 76.4425C11.1683 77.488 11.1683 79.1859 12.2038 80.2313C13.2392 81.2767 14.9209 81.2767 15.9564 80.2313L25.792 70.301H39.5148L49.3528 80.2337C50.3882 81.2791 52.0676 81.2791 53.1054 80.2337C54.1409 79.1882 54.1409 77.4903 53.1054 76.4449L43.2674 66.5123V46.9424L53.1031 37.0122C54.1385 35.9644 54.1385 34.2689 53.1031 33.2235C52.0676 32.1757 50.3859 32.1757 49.3504 33.2235L39.5148 43.1537H25.792L15.954 33.2211C14.9186 32.1757 13.2392 32.1757 12.2014 33.2211C11.1659 34.2689 11.1659 35.9644 12.2014 37.0098L22.0394 46.9424V66.5123L12.2038 76.4425ZM27.3464 48.5117H37.9604V64.943H27.3464V48.5117Z" fill="#778997"/>
  <path d="M8.77105 91.7333H56.5341C60.9236 91.7333 64.4946 88.128 64.4946 83.6963C64.4946 80.7291 64.4946 22.0836 64.4946 16.3637H72.4551C73.9199 16.3637 75.1086 15.1635 75.1086 13.6846V2.96857C75.1086 1.48975 73.9199 0.289551 72.4551 0.289551H61.8411C54.5245 0.289551 48.5736 6.29769 48.5736 13.6846V21.7217H43.2666V8.3266C43.2666 3.89491 39.6956 0.289551 35.3061 0.289551H19.3851C9.14373 0.289551 0.810547 8.70285 0.810547 19.0427V83.6963C0.810547 88.128 4.38157 91.7333 8.77105 91.7333ZM53.8806 13.6846C53.8806 9.25294 57.4516 5.64758 61.8411 5.64758H69.8016V11.0056H61.8411C60.3764 11.0056 59.1876 12.2058 59.1876 13.6846V21.7217H53.8806V13.6846ZM6.11755 19.0427C6.11755 11.6557 12.0685 5.64758 19.3851 5.64758H35.3061C36.7685 5.64758 37.9596 6.85016 37.9596 8.3266V24.4007C37.9596 25.8795 39.146 27.0797 40.6131 27.0797H59.1876V83.6963C59.1876 85.1727 57.9965 86.3753 56.5341 86.3753H8.77105C7.30868 86.3753 6.11755 85.1727 6.11755 83.6963V19.0427Z" fill="#778997"/>
  <path d="M14.0783 27.0797H29.9993C31.4641 27.0797 32.6528 25.8795 32.6528 24.4007V13.6846C32.6528 12.2058 31.4641 11.0056 29.9993 11.0056H19.3853C14.9958 11.0056 11.4248 14.611 11.4248 19.0427V24.4007C11.4248 25.8795 12.6112 27.0797 14.0783 27.0797ZM16.7318 19.0427C16.7318 17.5662 17.9229 16.3636 19.3853 16.3636H27.3458V21.7217H16.7318V19.0427Z" fill="#778997"/>
</svg>
