<svg width="25" height="24" viewBox="0 0 25 24" fill="none"
  xmlns="http://www.w3.org/2000/svg">
  <path d="M17.341 21.3746C13.7542 21.3746 10.2339 21.3746 6.65925 21.3746C6.65925 21.6351 6.66956 21.8657 6.65738 22.0953C6.60302 23.1497 5.75669 23.9754 4.7126 23.9988C3.68445 24.0223 2.77064 23.2678 2.71628 22.2256C2.67598 21.4608 2.58975 20.8225 1.92806 20.2808C1.4107 19.8572 1.32447 19.1449 1.32635 18.4682C1.3301 16.6724 1.33759 14.8767 1.3151 13.0809C1.31229 12.8532 1.1867 12.5776 1.0283 12.4098C0.146358 11.4717 -0.213543 10.3901 0.126676 9.1398C0.460334 7.91295 1.27667 7.11536 2.51477 6.80982C2.84374 6.72828 2.9609 6.58488 3.04806 6.28121C4.10246 2.58566 7.36781 0.0879144 11.218 0.00918606C12.8151 -0.0236174 14.4009 -0.00112363 15.9098 0.641825C18.4498 1.72434 20.1284 3.5782 20.9316 6.2156C21.0309 6.54176 21.1528 6.70672 21.5211 6.80232C22.7311 7.11442 23.5427 7.91014 23.8717 9.11543C24.2119 10.3582 23.8951 11.4717 22.9738 12.3761C22.748 12.5982 22.6683 12.8054 22.6702 13.1043C22.6795 14.8692 22.6674 16.634 22.6786 18.3979C22.6852 19.3989 22.3609 20.2246 21.5398 20.8394C21.4293 20.9228 21.3674 21.1178 21.3496 21.2696C21.3112 21.5939 21.3393 21.9257 21.299 22.2499C21.1715 23.2875 20.2933 24.0335 19.267 23.9988C18.222 23.9632 17.3944 23.1356 17.3448 22.0719C17.3326 21.8563 17.341 21.6398 17.341 21.3746ZM4.28803 6.80607C6.14283 7.55305 6.76141 8.98797 6.67144 10.8531C6.63207 11.6591 6.66488 12.4679 6.66488 13.2965C10.2405 13.2965 13.771 13.2965 17.3373 13.2965C17.3373 12.1737 17.3148 11.0827 17.3429 9.99363C17.3804 8.54371 18.0777 7.5165 19.4142 6.93353C19.5107 6.89136 19.6026 6.84168 19.6916 6.79763C19.3223 4.95501 17.8293 3.0974 16.0204 2.15547C14.294 1.25666 12.4495 1.24166 10.5854 1.3963C9.00986 1.52658 7.6368 2.15828 6.46524 3.21268C5.3846 4.1846 4.65449 5.37396 4.28803 6.80607ZM11.994 19.9949C14.5387 19.9949 17.0833 19.9959 19.6288 19.9949C20.8932 19.9949 21.3337 19.5479 21.3337 18.2667C21.3346 16.3622 21.3393 14.4568 21.3299 12.5523C21.328 12.1633 21.4368 11.8775 21.7713 11.6394C22.6224 11.0349 22.8867 10.0536 22.4799 9.16417C22.0984 8.33096 21.1921 7.8764 20.2718 8.05541C19.3176 8.24192 18.6747 9.03858 18.6644 10.0761C18.6541 11.0752 18.6691 12.0743 18.6569 13.0734C18.6541 13.333 18.7178 13.4839 18.969 13.617C19.5716 13.9366 19.9231 14.4605 19.9756 15.1513C20.0721 16.4269 19.1733 17.3397 17.8078 17.3416C13.936 17.3472 10.0643 17.3454 6.19251 17.3397C5.94507 17.3397 5.68921 17.3154 5.45302 17.2469C4.71916 17.0342 4.23836 16.5384 4.06684 15.7998C3.89626 15.066 4.01998 14.289 4.66949 13.9113C5.39866 13.4877 5.35743 12.9216 5.34337 12.2749C5.32837 11.6197 5.34805 10.9637 5.33587 10.3076C5.33118 10.0602 5.30588 9.80712 5.2487 9.56718C5.03408 8.67586 4.30303 8.0601 3.42389 8.00761C2.57475 7.957 1.77247 8.5006 1.47162 9.331C1.16045 10.1914 1.40976 11.063 2.18299 11.6047C2.54757 11.8606 2.67691 12.1577 2.6741 12.586C2.66098 14.5214 2.66473 16.4578 2.67035 18.3941C2.67316 19.5094 3.15772 19.9912 4.26929 19.9931C6.84202 19.9959 9.4185 19.9949 11.994 19.9949ZM11.9631 16.0126C12.9463 16.0126 13.9294 16.0126 14.9126 16.0126C15.9117 16.0126 16.9099 16.021 17.909 16.007C18.3776 16.0004 18.655 15.7314 18.656 15.3415C18.6569 14.9479 18.386 14.7033 17.9127 14.6723C17.819 14.6667 17.7253 14.6695 17.6315 14.6695C13.8704 14.6695 10.1092 14.6686 6.34903 14.6714C6.16345 14.6714 5.93102 14.6386 5.80261 14.7333C5.61142 14.8748 5.38367 15.1119 5.37617 15.3153C5.36867 15.5196 5.57674 15.7745 5.75763 15.9282C5.87572 16.0285 6.11378 16.0088 6.29842 16.0098C8.18696 16.0145 10.0746 16.0117 11.9631 16.0126ZM4.02842 21.3643C4.03123 21.8385 3.86346 22.3277 4.36676 22.5677C4.55046 22.6548 4.87943 22.6305 5.04907 22.518C5.46615 22.2415 5.34337 21.7935 5.30306 21.3643C4.87662 21.3643 4.47829 21.3643 4.02842 21.3643ZM18.6728 21.3689C18.6775 21.8169 18.5266 22.2865 18.9774 22.5358C19.1649 22.6398 19.5145 22.6342 19.6991 22.5246C20.1415 22.2612 19.9709 21.7991 19.9615 21.3689C19.5313 21.3689 19.133 21.3689 18.6728 21.3689Z" fill="#007BFF"/>
</svg>
