<svg width="80" height="61" viewBox="0 0 80 61" fill="none"
  xmlns="http://www.w3.org/2000/svg">
  <path d="M47.4554 55.7954H32.5498C31.2675 55.7954 30.2305 56.8101 30.2305 58.0603C30.2305 59.3104 31.2675 60.3251 32.5498 60.3251H47.4554C48.7377 60.3251 49.7747 59.3104 49.7747 58.0603C49.7747 56.8101 48.7357 55.7954 47.4554 55.7954Z" fill="#778997"/>
  <path d="M46.5265 41.82C47.013 40.8658 47.2893 39.7907 47.2893 38.6533C47.2893 34.7235 44.0278 31.5386 40.0035 31.5386C38.8366 31.5386 37.7357 31.8084 36.7584 32.2835L25.8339 21.6156C24.9288 20.7318 23.4588 20.7318 22.5538 21.6156C21.6487 22.4994 21.6487 23.9348 22.5538 24.8186L33.4804 35.4885C32.9939 36.4428 32.7176 37.5178 32.7176 38.6553C32.7176 42.585 35.9791 45.7699 40.0035 45.7699C41.1683 45.7699 42.2692 45.5022 43.2464 45.027L45.8173 47.5355C46.7223 48.4193 48.1923 48.4213 49.0973 47.5355C50.0044 46.6517 50.0044 45.2163 49.0973 44.3325L46.5265 41.82ZM40.0035 41.2362C38.5438 41.2362 37.3563 40.0766 37.3563 38.6513C37.3563 37.2259 38.5438 36.0663 40.0035 36.0663C41.4631 36.0663 42.6506 37.2259 42.6506 38.6513C42.6506 40.0766 41.4631 41.2362 40.0035 41.2362Z" fill="#778997"/>
  <path d="M40.0033 0C18.1768 0 0.419922 17.3396 0.419922 38.6533C0.419922 45.4458 2.25478 52.1297 5.7245 57.982C6.36567 59.0631 7.78202 59.4335 8.89117 58.8094L15.3461 55.1716C16.4553 54.5455 16.8346 53.1604 16.1955 52.0773C15.5544 50.9942 14.136 50.6218 13.0268 51.2479L8.64584 53.716C6.63369 49.7259 5.44206 45.3714 5.139 40.9182H10.1921C11.4723 40.9182 12.5114 39.9035 12.5114 38.6533C12.5114 37.4031 11.4723 36.3885 10.1921 36.3885H5.13694C5.44412 31.8226 6.67698 27.4982 8.65203 23.5926L13.0268 26.0588C14.136 26.6849 15.5544 26.3145 16.1955 25.2293C16.8346 24.1462 16.4553 22.7612 15.3461 22.1351L10.9775 19.6729C13.5195 15.9767 16.7831 12.7918 20.5683 10.3096L23.0896 14.5755C23.7288 15.6586 25.1492 16.0311 26.2584 15.405C27.3675 14.7789 27.7489 13.3938 27.1078 12.3107L24.5823 8.0407C28.5798 6.11206 33.0082 4.91018 37.686 4.6082V9.54254C37.686 10.7927 38.723 11.8074 40.0053 11.8074C41.2856 11.8074 42.3247 10.7927 42.3247 9.54254V4.60619C47.0005 4.90817 51.4289 6.11004 55.4264 8.03868L52.9009 12.3087C52.2597 13.3918 52.639 14.7768 53.7503 15.4029C54.8594 16.0291 56.2778 15.6586 56.919 14.5735L59.4404 10.3076C63.2255 12.7898 66.487 15.9767 69.0311 19.6709L64.6625 22.1351C63.5533 22.7612 63.174 24.1442 63.8131 25.2293C64.4543 26.3124 65.8706 26.6849 66.9818 26.0588L71.3566 23.5926C73.3316 27.4962 74.5625 31.8205 74.8717 36.3885H69.8145C68.5342 36.3885 67.4952 37.4031 67.4952 38.6533C67.4952 39.9035 68.5342 40.9182 69.8145 40.9182H74.8676C74.5645 45.3734 73.3729 49.7279 71.3607 53.716L66.9798 51.2459C65.8706 50.6198 64.4522 50.9922 63.811 52.0753C63.1699 53.1584 63.5513 54.5435 64.6604 55.1696L71.1154 58.8094C72.2246 59.4335 73.6409 59.0651 74.2821 57.982C77.7518 52.1297 79.5867 45.4458 79.5867 38.6533C79.5867 17.3396 61.8298 0 40.0033 0Z" fill="#778997"/>
</svg>
