<svg width="24" height="24" viewBox="0 0 24 24" fill="none"
  xmlns="http://www.w3.org/2000/svg">
  <path d="M0.994194 13.7085C0.857395 13.6991 0.763697 13.6982 0.671873 13.685C0.260539 13.6269 -0.00462381 13.3459 6.10827e-05 12.9767C0.00474597 12.5897 0.299897 12.2899 0.734655 12.2852C1.96866 12.274 3.20266 12.2805 4.43666 12.2805C4.84143 12.2805 5.24527 12.2805 5.71469 12.2805C5.71469 12.0903 5.71469 11.9254 5.71469 11.7605C5.71469 8.62067 5.71376 5.47992 5.71563 2.34011C5.71657 0.863428 6.56828 0.00234245 8.03184 0.00140547C12.5771 -0.000468489 17.1224 -0.000468489 21.6668 0.00140547C23.1369 0.00234245 23.9905 0.857803 23.9914 2.33167C23.9923 7.8308 23.9858 13.3299 23.998 18.8291C23.9998 19.7951 23.6475 20.5147 22.7949 20.9925C22.6852 21.0544 22.6009 21.2558 22.5962 21.3954C22.5737 21.9726 22.5906 22.5507 22.5859 23.1288C22.5812 23.7369 22.3358 23.9974 21.7426 23.9974C15.7919 24.0002 9.84115 24.0021 3.8904 23.9956C2.72573 23.9946 1.8787 23.2122 1.76814 22.0466C1.51422 19.3734 1.27529 16.6984 1.0298 14.0242C1.01856 13.9324 1.00825 13.8406 0.994194 13.7085ZM11.1023 19.7801C11.2822 19.7801 11.404 19.7801 11.5258 19.7801C14.899 19.7801 18.273 19.781 21.6461 19.7791C22.3582 19.7791 22.5822 19.5468 22.5831 18.815C22.584 14.7532 22.584 10.6923 22.5822 6.63053C22.5822 6.49467 22.5672 6.35975 22.5587 6.22482C17.3997 6.22482 12.2726 6.22482 7.1464 6.22482C7.1464 8.25244 7.1464 10.2454 7.1464 12.2543C7.94283 12.2543 8.71396 12.2543 9.48041 12.2543C10.155 8.56071 13.6125 6.95191 16.429 7.82893C19.3449 8.73686 20.9518 11.871 19.9436 14.7476C19.4452 16.1699 18.5082 17.2353 17.1355 17.8602C15.0892 18.7916 13.1646 18.4552 11.345 17.1144C11.2616 18.027 11.1857 18.8656 11.1023 19.7801ZM11.6608 13.7178C11.6298 14.0139 11.6252 14.3109 11.5633 14.5967C11.4696 15.0212 11.6045 15.3351 11.8903 15.6499C13.3829 17.2943 15.9193 17.4161 17.5572 15.9047C19.2016 14.3887 19.2653 11.812 17.6986 10.2042C16.1498 8.61411 13.5928 8.60006 12.0318 10.1817C11.4649 10.756 11.0845 11.4316 10.9533 12.2814C11.2644 12.2814 11.5286 12.2786 11.7919 12.2824C12.3101 12.2889 12.624 12.5354 12.6483 12.9467C12.6727 13.3618 12.3804 13.6391 11.8697 13.6907C11.8079 13.6953 11.7479 13.7057 11.6608 13.7178ZM13.7034 4.75095C16.6773 4.75095 19.6157 4.75095 22.5831 4.75095C22.5831 3.94327 22.584 3.16558 22.5831 2.38789C22.5822 1.62988 22.3657 1.40969 21.6162 1.40969C19.121 1.40875 16.6267 1.40969 14.1316 1.40969C13.9957 1.40969 13.8599 1.40969 13.7034 1.40969C13.7034 2.54343 13.7034 3.62939 13.7034 4.75095ZM21.1552 21.2165C17.7408 21.2165 14.363 21.2165 10.9833 21.2165C10.929 21.684 10.8784 22.1235 10.8259 22.5685C14.2805 22.5685 17.7071 22.5685 21.1552 22.5685C21.1552 22.115 21.1552 21.684 21.1552 21.2165ZM7.12297 4.7547C8.86013 4.7547 10.5495 4.7547 12.2426 4.7547C12.2426 3.63033 12.2426 2.53406 12.2426 1.41156C10.7491 1.41156 9.28645 1.40312 7.82383 1.41718C7.39657 1.42093 7.13421 1.70202 7.12672 2.13865C7.11266 2.99411 7.12297 3.85052 7.12297 4.7547ZM5.54416 16.2224C6.0848 16.2224 6.58608 16.2224 7.10798 16.2224C7.14827 15.3641 7.18668 14.5461 7.2251 13.7197C6.59451 13.7197 6.02671 13.7197 5.41955 13.7197C5.46171 14.5724 5.50293 15.3922 5.54416 16.2224ZM4.00752 13.7113C3.45751 13.7113 2.96372 13.7113 2.41372 13.7113C2.49242 14.5667 2.56832 15.395 2.64609 16.2355C3.15487 16.2355 3.61492 16.2355 4.12745 16.2355C4.08716 15.3866 4.04875 14.5677 4.00752 13.7113ZM10.0061 16.2355C10.0838 15.3697 10.1569 14.5536 10.2319 13.7188C9.67343 13.7188 9.1684 13.7188 8.63994 13.7188C8.59965 14.5677 8.56123 15.3866 8.52094 16.2355C9.03347 16.2355 9.49446 16.2355 10.0061 16.2355ZM4.18929 17.7122C3.70394 17.7122 3.2645 17.7122 2.7782 17.7122C2.84473 18.4243 2.90657 19.0933 2.96654 19.7445C3.44814 19.7445 3.85948 19.7445 4.28674 19.7445C4.25394 19.0595 4.22302 18.4112 4.18929 17.7122ZM8.4591 17.7047C8.42818 18.4046 8.3982 19.0755 8.36821 19.7492C8.83577 19.7492 9.24617 19.7492 9.69404 19.7492C9.7512 19.0521 9.80554 18.3812 9.86082 17.7047C9.35392 17.7047 8.92478 17.7047 8.4591 17.7047ZM5.68002 17.6981C5.68002 18.3812 5.68002 19.0567 5.68002 19.7482C6.13633 19.7482 6.53174 19.7482 6.9515 19.7482C6.98242 19.053 7.01147 18.3887 7.04146 17.6981C6.54767 17.6981 6.11572 17.6981 5.68002 17.6981ZM4.41604 22.5638C4.39074 22.0897 4.36732 21.6494 4.34389 21.2118C3.8932 21.2118 3.50811 21.2118 3.12395 21.2118C3.09397 22.3849 3.33102 22.6444 4.41604 22.5638ZM8.23329 22.5479C9.29395 22.6725 9.62189 22.3099 9.49821 21.2062C9.11499 21.2062 8.72989 21.2062 8.29982 21.2062C8.27733 21.655 8.25578 22.086 8.23329 22.5479ZM6.83626 22.5695C6.83626 22.0925 6.83626 21.6653 6.83626 21.2249C6.48302 21.2249 6.14008 21.2249 5.82338 21.2249C5.82338 21.6915 5.82338 22.1197 5.82338 22.5695C6.16913 22.5695 6.47177 22.5695 6.83626 22.5695Z" fill="#80D6FB"/>
  <path d="M18.1512 2.39917C18.5241 2.40947 18.8305 2.71961 18.8333 3.09066C18.8361 3.48044 18.5063 3.80089 18.1137 3.79058C17.7408 3.78027 17.4344 3.47013 17.4316 3.09909C17.4288 2.71024 17.7595 2.38886 18.1512 2.39917Z" fill="#80D6FB"/>
  <path d="M21.6443 3.11399C21.633 3.50471 21.2948 3.81204 20.9013 3.78862C20.5265 3.76613 20.2313 3.44849 20.2426 3.07651C20.2538 2.68673 20.593 2.37846 20.9856 2.40189C21.3613 2.42344 21.6555 2.74201 21.6443 3.11399Z" fill="#80D6FB"/>
  <path d="M9.7109 3.78592C9.52444 3.78592 9.33423 3.80747 9.15152 3.78124C8.75893 3.72502 8.52938 3.47953 8.53593 3.08413C8.54249 2.68966 8.77861 2.43948 9.17308 2.40762C9.52819 2.37858 9.8908 2.37577 10.2459 2.41138C10.6394 2.45073 10.8681 2.71027 10.8615 3.10567C10.8549 3.50014 10.6188 3.73626 10.2253 3.78498C10.0566 3.8056 9.88331 3.78873 9.71184 3.78873C9.7109 3.7878 9.7109 3.78686 9.7109 3.78592Z" fill="#80D6FB"/>
</svg>
