<svg width="80" height="61" viewBox="0 0 80 61" fill="none"
  xmlns="http://www.w3.org/2000/svg">
  <path d="M77.2673 23.7289H67.99C66.7081 23.7289 65.6706 24.7504 65.6706 26.0125V28.2962H61.032V21.4452C61.032 20.1831 59.9944 19.1616 58.7126 19.1616H51.7546V12.3106C51.7546 11.0485 50.7171 10.027 49.4353 10.027H42.3226V5.45965H49.4353C50.7171 5.45965 51.7546 4.43809 51.7546 3.17599C51.7546 1.91389 50.7171 0.892334 49.4353 0.892334H21.294C20.0121 0.892334 18.9746 1.91389 18.9746 3.17599C18.9746 4.43809 20.0121 5.45965 21.294 5.45965H28.4066V10.027H21.294C20.0121 10.027 18.9746 11.0485 18.9746 12.3106V19.1616H12.0166C10.7348 19.1616 9.69727 20.1831 9.69727 21.4452V28.2962H5.0586V21.4452C5.0586 20.1831 4.02108 19.1616 2.73926 19.1616C1.45744 19.1616 0.419922 20.1831 0.419922 21.4452V48.8491C0.419922 50.1112 1.45744 51.1328 2.73926 51.1328C4.02108 51.1328 5.0586 50.1112 5.0586 48.8491V41.9981H9.69727V48.8491C9.69727 50.1112 10.7348 51.1328 12.0166 51.1328H20.3446L29.0993 59.6127C29.5338 60.0329 30.1167 60.2674 30.7259 60.2674H58.7126C59.9944 60.2674 61.032 59.2458 61.032 57.9837V51.1328H65.6706V53.4164C65.6706 54.6785 66.7081 55.7001 67.99 55.7001H77.2673C78.5476 55.7001 79.5867 54.6785 79.5867 53.4164V26.0125C79.5867 24.7504 78.5476 23.7289 77.2673 23.7289ZM33.0453 5.45965H37.6839V10.027H33.0453V5.45965ZM5.0586 37.4308V32.8635H9.69727V37.4308H5.0586ZM14.3359 23.7289H18.9746V46.5654H14.3359V23.7289ZM23.6133 47.8915C23.6133 46.8441 23.6133 15.0662 23.6133 14.5943H47.1159V55.7001H31.6753L23.6133 47.8915ZM56.3933 55.7001H51.7546V23.7289H56.3933V55.7001ZM61.032 46.5654V32.8635H65.6706V46.5654H61.032ZM74.948 51.1328H70.3093V28.2962H74.948V51.1328Z" fill="#778997"/>
  <path d="M42.0491 31.7854C41.6455 31.0425 40.8585 30.5796 40.0034 30.5796H35.0601L37.2944 27.279C38.0041 26.23 37.7181 24.8111 36.6512 24.1123C35.5858 23.4135 34.1447 23.6967 33.435 24.7457L28.7963 31.5966C28.3216 32.2969 28.2768 33.1982 28.6804 33.9412C29.0839 34.6841 29.871 35.1469 30.726 35.1469H35.6693L33.435 38.4476C32.7253 39.4965 33.0114 40.9154 34.0783 41.6142C35.1421 42.313 36.5831 42.0329 37.2944 40.9809L41.9331 34.1299C42.4078 33.4296 42.4526 32.5283 42.0491 31.7854Z" fill="#778997"/>
</svg>
