<?xml version="1.0" encoding="iso-8859-1"?>
<!-- Generator: Adobe Illustrator 19.0.0, SVG Export Plug-In . SVG Version: 6.00 Build 0)  -->
<svg version="1.1" id="Layer_1" xmlns="http://www.w3.org/2000/svg" xmlns:xlink="http://www.w3.org/1999/xlink" x="0px" y="0px"
	 viewBox="0 0 512 512" style="enable-background:new 0 0 512 512;" xml:space="preserve">
<g>
	<path style="fill:#535353;" d="M435.209,350.367c-23.217-5.773-40.545-26.703-40.545-51.703C394.664,269.206,418.542,256,448,256
		c3.399,0,6.947,0.441,10.178,1.068c0.15,3.204,0.486,6.356,0.486,9.596C458.664,300.738,450.127,322.154,435.209,350.367
		 M137.34,419.946c19.076-27.26,65.068-46.618,118.66-46.618c53.583,0,99.46,19.456,118.537,46.716
		C341.16,444.231,300.279,458.664,256,458.664C211.668,458.664,170.743,444.186,137.34,419.946 M53.336,256
		c0-3.275,0.335-6.462,0.486-9.693c3.231-0.627,6.771-0.98,10.178-0.98c29.458,0,53.336,23.879,53.336,53.336
		c0,25-17.355,45.895-40.563,51.668C61.864,322.127,53.336,290.057,53.336,256 M256,53.327c93.272,0,170.708,63.417,194.207,149.707
		H61.793C85.292,116.745,162.728,53.327,256,53.327 M256,0C114.617,0,0,114.609,0,256c0,141.383,114.617,256,256,256
		s256-114.617,256-256C512,114.609,397.383,0,256,0"/>
	<path style="fill:#FECA09;" d="M335.447,282.479c0,19.5-35.734,35.31-79.819,35.31s-79.819-15.81-79.819-35.31
		c0-19.5,35.734-35.31,79.819-35.31S335.447,262.979,335.447,282.479"/>
</g>
<g>
</g>
<g>
</g>
<g>
</g>
<g>
</g>
<g>
</g>
<g>
</g>
<g>
</g>
<g>
</g>
<g>
</g>
<g>
</g>
<g>
</g>
<g>
</g>
<g>
</g>
<g>
</g>
<g>
</g>
</svg>
